# Blender v2.76 (sub 0) OBJ File: 'circle.blend'
# www.blender.org
mtllib circle.mtl
o Circle
v 0.000000 0.000000 -1.000000
v -0.195090 0.000000 -0.980785
v -0.382683 0.000000 -0.923880
v -0.555570 0.000000 -0.831470
v -0.707107 0.000000 -0.707107
v -0.831470 0.000000 -0.555570
v -0.923880 0.000000 -0.382683
v -0.980785 0.000000 -0.195090
v -1.000000 0.000000 -0.000000
v -0.980785 0.000000 0.195090
v -0.923880 0.000000 0.382683
v -0.831470 0.000000 0.555570
v -0.707107 0.000000 0.707107
v 0.707107 0.000000 0.707106
v 0.831470 0.000000 0.555570
v 0.923880 0.000000 0.382683
v 0.980785 0.000000 0.195089
v 1.000000 0.000000 -0.000001
v 0.980785 0.000000 -0.195091
v 0.923879 0.000000 -0.382684
v 0.831469 0.000000 -0.555571
v 0.707106 0.000000 -0.707108
v 0.555569 0.000000 -0.831470
v 0.382682 0.000000 -0.923880
v 0.195089 0.000000 -0.980786
v -0.195090 0.316803 -0.980785
v 0.000000 0.316803 -1.000000
v -0.382683 0.316803 -0.923880
v -0.555570 0.316803 -0.831470
v -0.707107 0.316803 -0.707107
v -0.831470 0.316803 -0.555570
v -0.923880 0.316803 -0.382683
v -0.980785 0.316803 -0.195090
v -1.000000 0.316803 -0.000000
v -0.980785 0.316803 0.195090
v -0.923880 0.316803 0.382683
v -0.831470 0.316803 0.555570
v -0.707107 0.316803 0.707107
v 0.707107 0.316803 0.707106
v 0.831470 0.316803 0.555570
v 0.923880 0.316803 0.382683
v 0.980785 0.316803 0.195089
v 1.000000 0.316803 -0.000001
v 0.980785 0.316803 -0.195091
v 0.923879 0.316803 -0.382684
v 0.831469 0.316803 -0.555571
v 0.707106 0.316803 -0.707108
v 0.555569 0.316803 -0.831470
v 0.382682 0.316803 -0.923880
v 0.195089 0.316803 -0.980786
v -0.130864 0.318326 -0.657899
v -0.000000 0.318326 -0.670788
v -0.256700 0.318326 -0.619727
v -0.372670 0.318326 -0.557740
v -0.474319 0.318326 -0.474319
v -0.557740 0.318326 -0.372670
v -0.619727 0.318326 -0.256700
v -0.657899 0.318326 -0.130864
v -0.670788 0.318326 -0.000000
v -0.657899 0.318326 0.130864
v -0.619727 0.318326 0.256699
v -0.557740 0.318326 0.372670
v -0.474319 0.318326 0.474319
v 0.474319 0.318326 0.474318
v 0.557740 0.318326 0.372669
v 0.619728 0.318326 0.256699
v 0.657899 0.318326 0.130864
v 0.670788 0.318326 -0.000001
v 0.657899 0.318326 -0.130865
v 0.619727 0.318326 -0.256700
v 0.557739 0.318326 -0.372671
v 0.474318 0.318326 -0.474319
v 0.372669 0.318326 -0.557741
v 0.256699 0.318326 -0.619728
v 0.130863 0.318326 -0.657899
v 0.000016 -0.005488 -0.706542
v -0.135826 -0.005488 -0.693163
v -0.266447 -0.005488 -0.653539
v -0.386829 -0.005488 -0.589194
v -0.492344 -0.005488 -0.502600
v -0.578938 -0.005488 -0.397085
v -0.643283 -0.005488 -0.276704
v -0.682906 -0.005488 -0.146083
v -0.696286 -0.005488 -0.010241
v -0.682906 -0.005488 0.125601
v -0.643283 -0.005488 0.256222
v -0.578938 -0.005488 0.376603
v -0.492344 -0.005488 0.482118
v 0.492375 -0.005488 0.482118
v 0.578969 -0.005488 0.376603
v 0.643314 -0.005488 0.256222
v 0.682938 -0.005488 0.125600
v 0.696317 -0.005488 -0.010242
v 0.682937 -0.005488 -0.146083
v 0.643314 -0.005488 -0.276705
v 0.578968 -0.005488 -0.397086
v 0.492374 -0.005488 -0.502601
v 0.386859 -0.005488 -0.589195
v 0.266478 -0.005488 -0.653540
v 0.135856 -0.005488 -0.693163
vn 0.008800 -0.999800 -0.016500
vn 0.004600 1.000000 -0.000500
vn 0.471400 0.000000 -0.881900
vn -0.634400 0.000000 -0.773000
vn 0.290300 0.000000 -0.956900
vn -0.773000 0.000000 -0.634400
vn 0.098000 0.000000 -0.995200
vn -0.881900 0.000000 -0.471400
vn -0.956900 0.000000 -0.290300
vn 0.773000 0.000000 0.634400
vn -0.995200 0.000000 -0.098000
vn 0.881900 0.000000 0.471400
vn -0.995200 0.000000 0.098000
vn 0.956900 0.000000 0.290300
vn -0.956900 0.000000 0.290300
vn 0.995200 0.000000 0.098000
vn -0.881900 0.000000 0.471400
vn 0.995200 0.000000 -0.098000
vn -0.773000 0.000000 0.634400
vn 0.956900 0.000000 -0.290300
vn 0.881900 0.000000 -0.471400
vn -0.098000 0.000000 -0.995200
vn 0.773000 0.000000 -0.634400
vn -0.290300 0.000000 -0.956900
vn 0.634400 0.000000 -0.773000
vn -0.471400 0.000000 -0.881900
vn -0.003600 1.000000 0.002900
vn 0.004400 1.000000 -0.001300
vn 0.004100 1.000000 -0.002200
vn -0.000500 1.000000 -0.004600
vn 0.003600 1.000000 -0.002900
vn -0.001300 1.000000 -0.004400
vn 0.002900 1.000000 -0.003600
vn -0.002200 1.000000 -0.004100
vn 0.002200 1.000000 -0.004100
vn -0.002900 1.000000 -0.003600
vn 0.001300 1.000000 -0.004400
vn -0.003600 1.000000 -0.002900
vn 0.000500 1.000000 -0.004600
vn -0.004100 1.000000 -0.002200
vn -0.004400 1.000000 -0.001300
vn 0.003600 1.000000 0.002900
vn -0.004600 1.000000 -0.000500
vn 0.004100 1.000000 0.002200
vn -0.004600 1.000000 0.000500
vn 0.004400 1.000000 0.001300
vn -0.004400 1.000000 0.001300
vn 0.004600 1.000000 0.000500
vn -0.004100 1.000000 0.002200
vn -0.011800 -0.999800 -0.014400
vn 0.005400 -0.999800 -0.018000
vn -0.014300 -0.999800 -0.011800
vn 0.001800 -0.999800 -0.018700
vn -0.016300 -0.999800 -0.008700
vn -0.017500 -0.999800 -0.005300
vn 0.013700 -0.999800 0.011300
vn -0.018100 -0.999800 -0.001800
vn 0.015800 -0.999800 0.008400
vn -0.018000 -0.999800 0.001800
vn 0.017200 -0.999800 0.005200
vn -0.017200 -0.999800 0.005200
vn 0.018000 -0.999800 0.001800
vn -0.015800 -0.999800 0.008400
vn 0.018100 -0.999800 -0.001800
vn -0.013700 -0.999800 0.011300
vn 0.017500 -0.999800 -0.005300
vn 0.016300 -0.999800 -0.008700
vn -0.001800 -0.999800 -0.018700
vn 0.014300 -0.999800 -0.011800
vn -0.005400 -0.999800 -0.018000
vn 0.011800 -0.999800 -0.014400
vn -0.008800 -0.999800 -0.016500
vn 0.714900 -0.011600 0.699100
vn -0.715000 -0.011600 0.699100
vn -0.771700 -0.058300 -0.633300
vn -0.880100 -0.063400 -0.470400
vn 0.771700 -0.058200 -0.633300
vn 0.880200 -0.063300 -0.470500
vn 0.954700 -0.069000 -0.289600
vn 0.992400 -0.075100 -0.097700
vn 0.991900 -0.081200 0.097700
vn 0.953300 -0.087200 0.289200
vn 0.878100 -0.092900 0.469400
vn 0.769300 -0.098000 0.631300
vn 0.631100 -0.102300 0.769000
vn 0.468800 -0.105700 0.877000
vn 0.288600 -0.108000 0.951300
vn 0.097400 -0.109200 0.989200
vn -0.097400 -0.109200 0.989200
vn -0.288600 -0.108100 0.951300
vn -0.468800 -0.105700 0.877000
vn -0.631100 -0.102300 0.769000
vn -0.769300 -0.098000 0.631300
vn -0.878100 -0.093000 0.469400
vn -0.953300 -0.087300 0.289200
vn -0.991900 -0.081300 0.097700
vn -0.992400 -0.075100 -0.097700
vn -0.954700 -0.069100 -0.289600
usemtl None
s off
f 24//1 23//1 98//1 99//1
f 43//2 44//2 69//2 68//2
f 23//3 24//3 49//3 48//3
f 4//4 5//4 30//4 29//4
f 24//5 25//5 50//5 49//5
f 5//6 6//6 31//6 30//6
f 25//7 1//7 27//7 50//7
f 6//8 7//8 32//8 31//8
f 7//9 8//9 33//9 32//9
f 14//10 15//10 40//10 39//10
f 8//11 9//11 34//11 33//11
f 15//12 16//12 41//12 40//12
f 9//13 10//13 35//13 34//13
f 16//14 17//14 42//14 41//14
f 10//15 11//15 36//15 35//15
f 17//16 18//16 43//16 42//16
f 11//17 12//17 37//17 36//17
f 18//18 19//18 44//18 43//18
f 12//19 13//19 38//19 37//19
f 19//20 20//20 45//20 44//20
f 20//21 21//21 46//21 45//21
f 1//22 2//22 26//22 27//22
f 21//23 22//23 47//23 46//23
f 2//24 3//24 28//24 26//24
f 22//25 23//25 48//25 47//25
f 3//26 4//26 29//26 28//26
f 37//27 38//27 63//27 62//27
f 44//28 45//28 70//28 69//28
f 45//29 46//29 71//29 70//29
f 27//30 26//30 51//30 52//30
f 46//31 47//31 72//31 71//31
f 26//32 28//32 53//32 51//32
f 47//33 48//33 73//33 72//33
f 28//34 29//34 54//34 53//34
f 48//35 49//35 74//35 73//35
f 29//36 30//36 55//36 54//36
f 49//37 50//37 75//37 74//37
f 30//38 31//38 56//38 55//38
f 50//39 27//39 52//39 75//39
f 31//40 32//40 57//40 56//40
f 32//41 33//41 58//41 57//41
f 39//42 40//42 65//42 64//42
f 33//43 34//43 59//43 58//43
f 40//44 41//44 66//44 65//44
f 34//45 35//45 60//45 59//45
f 41//46 42//46 67//46 66//46
f 35//47 36//47 61//47 60//47
f 42//48 43//48 68//48 67//48
f 36//49 37//49 62//49 61//49
f 5//50 4//50 79//50 80//50
f 25//51 24//51 99//51 100//51
f 6//52 5//52 80//52 81//52
f 1//53 25//53 100//53 76//53
f 7//54 6//54 81//54 82//54
f 8//55 7//55 82//55 83//55
f 15//56 14//56 89//56 90//56
f 9//57 8//57 83//57 84//57
f 16//58 15//58 90//58 91//58
f 10//59 9//59 84//59 85//59
f 17//60 16//60 91//60 92//60
f 11//61 10//61 85//61 86//61
f 18//62 17//62 92//62 93//62
f 12//63 11//63 86//63 87//63
f 19//64 18//64 93//64 94//64
f 13//65 12//65 87//65 88//65
f 20//66 19//66 94//66 95//66
f 21//67 20//67 95//67 96//67
f 2//68 1//68 76//68 77//68
f 22//69 21//69 96//69 97//69
f 3//70 2//70 77//70 78//70
f 23//71 22//71 97//71 98//71
f 4//72 3//72 78//72 79//72
f 13//73 88//73 63//73 38//73
f 14//74 39//74 64//74 89//74
f 64//75 65//75 90//75 89//75
f 65//76 66//76 91//76 90//76
f 62//77 63//77 88//77 87//77
f 61//78 62//78 87//78 86//78
f 60//79 61//79 86//79 85//79
f 59//80 60//80 85//80 84//80
f 58//81 59//81 84//81 83//81
f 57//82 58//82 83//82 82//82
f 56//83 57//83 82//83 81//83
f 55//84 56//84 81//84 80//84
f 54//85 55//85 80//85 79//85
f 53//86 54//86 79//86 78//86
f 51//87 53//87 78//87 77//87
f 52//88 51//88 77//88 76//88
f 75//89 52//89 76//89 100//89
f 74//90 75//90 100//90 99//90
f 73//91 74//91 99//91 98//91
f 72//92 73//92 98//92 97//92
f 71//93 72//93 97//93 96//93
f 70//94 71//94 96//94 95//94
f 69//95 70//95 95//95 94//95
f 68//96 69//96 94//96 93//96
f 67//97 68//97 93//97 92//97
f 66//98 67//98 92//98 91//98
